<svg width="32" height="23" viewBox="0 0 32 23" fill="none" xmlns="http://www.w3.org/2000/svg">
<path d="M2.51092 1.31301L13.9474 10.3719C14.466 10.7822 15.1806 10.9646 15.8747 10.9304C16.5677 10.9646 17.2823 10.7834 17.8009 10.3719L29.2374 1.31301C30.1537 0.59154 29.9463 0 28.7837 0H15.8759H2.96797C1.80426 0 1.59682 0.59154 2.51092 1.31301Z" fill="white"/>
<path d="M30.0637 3.70296L17.5661 13.1915C17.0988 13.5426 16.4868 13.7136 15.877 13.7056C15.2661 13.7136 14.654 13.5415 14.1867 13.1915L1.68686 3.70296C0.759086 2.99973 0 3.37699 0 4.54069V20.1088C0 21.2725 0.952847 22.2254 2.11655 22.2254H15.8747H29.634C30.7977 22.2254 31.7506 21.2725 31.7506 20.1088V4.54069C31.7506 3.37699 30.9915 2.99973 30.0637 3.70296Z" fill="white"/>
</svg>
